# xmcd
#
# Track frame offsets:
#	150
#	28270
#	51181
#	77147
#	96258
#	116012
#	136257
#	154058
#	173938
#	194873
#	218593
#
# Disc length: 3217 seconds
# Revision: 0
# Processed by: cddbd v1.5.2PL0 Copyright (c) Steve Scherf et al.
# Submitted via: dBpowerAMP V12.0
#
DISCID=9d0c8f0b
DTITLE=Rick James - The Music of Rick James 1982-1994 [CDTwo:1984-1994)
DYEAR=1900
DGENRE=Funk
TTITLE0=Can't Stop
TTITLE1=Oh What A Night(4 Luv)
TTITLE2=Glow
TTITLE3=Spend The Night With Me
TTITLE4=Moonchild
TTITLE5=Sweet And Sexy Thing
TTITLE6=Loosey's Rap feat. Roxanne Sharp
TTITLE7=Wonderful
TTITLE8=Everywhere I Go(Colors)
TTITLE9=Sexual Luv Affair
TTITLE10=Serious Love(Spend The Night)
EXTD=
EXTT0=
EXTT1=
EXTT2=
EXTT3=
EXTT4=
EXTT5=
EXTT6=
EXTT7=
EXTT8=
EXTT9=
EXTT10=
PLAYORDER=
